<mxfile host="app.diagrams.net" modified="2023-11-06T14:19:28.742Z" agent="Mozilla/5.0 (Windows NT 10.0; Win64; x64) AppleWebKit/537.36 (KHTML, like Gecko) Chrome/119.0.0.0 Safari/537.36" version="22.0.8" etag="GfqLtF2bWw2kDbqUugTb" type="github">
  <diagram name="페이지-1" id="q04Y4RyBtX_a_hriLJLF">
    <mxGraphModel>
      <root>
        <mxCell id="0" />
        <mxCell id="1" parent="0" />
      </root>
    </mxGraphModel>
  </diagram>
</mxfile>
